<svg width="97" height="30" viewBox="0 0 97 30" fill="none" xmlns="http://www.w3.org/2000/svg">
<path d="M18.7031 25.1133V29H4.42578V25.1133H18.7031ZM5.79297 0.5625V29H0.890625V0.5625H5.79297ZM43.0789 14V15.5625C43.0789 17.7109 42.799 19.638 42.2391 21.3438C41.6792 23.0495 40.8784 24.5013 39.8367 25.6992C38.8081 26.8971 37.5711 27.8151 36.1258 28.4531C34.6805 29.0781 33.0789 29.3906 31.3211 29.3906C29.5763 29.3906 27.9813 29.0781 26.5359 28.4531C25.1036 27.8151 23.8602 26.8971 22.8055 25.6992C21.7508 24.5013 20.9305 23.0495 20.3445 21.3438C19.7716 19.638 19.4852 17.7109 19.4852 15.5625V14C19.4852 11.8516 19.7716 9.93099 20.3445 8.23828C20.9174 6.53255 21.7247 5.08073 22.7664 3.88281C23.8211 2.67188 25.0646 1.75391 26.4969 1.12891C27.9422 0.490885 29.5372 0.171875 31.282 0.171875C33.0398 0.171875 34.6414 0.490885 36.0867 1.12891C37.532 1.75391 38.7755 2.67188 39.8172 3.88281C40.8589 5.08073 41.6596 6.53255 42.2195 8.23828C42.7924 9.93099 43.0789 11.8516 43.0789 14ZM38.1766 15.5625V13.9609C38.1766 12.3724 38.0203 10.9727 37.7078 9.76172C37.4083 8.53776 36.9591 7.51562 36.3602 6.69531C35.7742 5.86198 35.0516 5.23698 34.1922 4.82031C33.3328 4.39062 32.3628 4.17578 31.282 4.17578C30.2013 4.17578 29.2378 4.39062 28.3914 4.82031C27.5451 5.23698 26.8224 5.86198 26.2234 6.69531C25.6375 7.51562 25.1883 8.53776 24.8758 9.76172C24.5633 10.9727 24.407 12.3724 24.407 13.9609V15.5625C24.407 17.151 24.5633 18.5573 24.8758 19.7812C25.1883 21.0052 25.644 22.0404 26.243 22.8867C26.8549 23.7201 27.5841 24.3516 28.4305 24.7812C29.2768 25.1979 30.2404 25.4062 31.3211 25.4062C32.4148 25.4062 33.3849 25.1979 34.2313 24.7812C35.0776 24.3516 35.7938 23.7201 36.3797 22.8867C36.9656 22.0404 37.4083 21.0052 37.7078 19.7812C38.0203 18.5573 38.1766 17.151 38.1766 15.5625ZM69.0172 14.4688V25.3281C68.6135 25.862 67.982 26.4479 67.1227 27.0859C66.2763 27.7109 65.15 28.2513 63.7438 28.707C62.3375 29.1628 60.5862 29.3906 58.4898 29.3906C56.706 29.3906 55.0719 29.0911 53.5875 28.4922C52.1031 27.8802 50.8206 26.9883 49.7398 25.8164C48.6721 24.6445 47.8453 23.2188 47.2594 21.5391C46.6734 19.8464 46.3805 17.9193 46.3805 15.7578V13.7852C46.3805 11.6367 46.6474 9.72266 47.1813 8.04297C47.7281 6.35026 48.5094 4.91797 49.525 3.74609C50.5406 2.57422 51.7646 1.6888 53.1969 1.08984C54.6422 0.477865 56.2763 0.171875 58.0992 0.171875C60.4299 0.171875 62.357 0.5625 63.8805 1.34375C65.4169 2.11198 66.6018 3.17969 67.4352 4.54688C68.2685 5.91406 68.7958 7.47656 69.0172 9.23438H64.2125C64.0563 8.24479 63.7503 7.35938 63.2945 6.57812C62.8518 5.79688 62.2138 5.1849 61.3805 4.74219C60.5602 4.28646 59.4924 4.05859 58.1773 4.05859C57.0445 4.05859 56.0484 4.27344 55.1891 4.70312C54.3297 5.13281 53.6135 5.76432 53.0406 6.59766C52.4807 7.43099 52.0576 8.44661 51.7711 9.64453C51.4846 10.8424 51.3414 12.2096 51.3414 13.7461V15.7578C51.3414 17.3203 51.5042 18.707 51.8297 19.918C52.1682 21.1289 52.65 22.151 53.275 22.9844C53.913 23.8177 54.6878 24.4492 55.5992 24.8789C56.5107 25.2956 57.5393 25.5039 58.6852 25.5039C59.8049 25.5039 60.7229 25.4128 61.4391 25.2305C62.1552 25.0352 62.7216 24.8073 63.1383 24.5469C63.568 24.2734 63.9 24.013 64.1344 23.7656V18.1211H58.2164V14.4688H69.0172ZM96.3227 14V15.5625C96.3227 17.7109 96.0427 19.638 95.4828 21.3438C94.9229 23.0495 94.1221 24.5013 93.0805 25.6992C92.0518 26.8971 90.8148 27.8151 89.3695 28.4531C87.9242 29.0781 86.3227 29.3906 84.5648 29.3906C82.8201 29.3906 81.225 29.0781 79.7797 28.4531C78.3474 27.8151 77.1039 26.8971 76.0492 25.6992C74.9945 24.5013 74.1742 23.0495 73.5883 21.3438C73.0154 19.638 72.7289 17.7109 72.7289 15.5625V14C72.7289 11.8516 73.0154 9.93099 73.5883 8.23828C74.1612 6.53255 74.9685 5.08073 76.0102 3.88281C77.0648 2.67188 78.3083 1.75391 79.7406 1.12891C81.1859 0.490885 82.781 0.171875 84.5258 0.171875C86.2836 0.171875 87.8852 0.490885 89.3305 1.12891C90.7758 1.75391 92.0193 2.67188 93.0609 3.88281C94.1026 5.08073 94.9034 6.53255 95.4633 8.23828C96.0362 9.93099 96.3227 11.8516 96.3227 14ZM91.4203 15.5625V13.9609C91.4203 12.3724 91.2641 10.9727 90.9516 9.76172C90.6521 8.53776 90.2029 7.51562 89.6039 6.69531C89.018 5.86198 88.2953 5.23698 87.4359 4.82031C86.5766 4.39062 85.6065 4.17578 84.5258 4.17578C83.4451 4.17578 82.4815 4.39062 81.6352 4.82031C80.7888 5.23698 80.0661 5.86198 79.4672 6.69531C78.8812 7.51562 78.432 8.53776 78.1195 9.76172C77.807 10.9727 77.6508 12.3724 77.6508 13.9609V15.5625C77.6508 17.151 77.807 18.5573 78.1195 19.7812C78.432 21.0052 78.8878 22.0404 79.4867 22.8867C80.0987 23.7201 80.8279 24.3516 81.6742 24.7812C82.5206 25.1979 83.4841 25.4062 84.5648 25.4062C85.6586 25.4062 86.6286 25.1979 87.475 24.7812C88.3214 24.3516 89.0375 23.7201 89.6234 22.8867C90.2094 22.0404 90.6521 21.0052 90.9516 19.7812C91.2641 18.5573 91.4203 17.151 91.4203 15.5625Z" fill="black"/>
</svg>
